<?xml version="1.0" standalone="no"?>
<!DOCTYPE svg PUBLIC "-//W3C//DTD SVG 20010904//EN"
 "http://www.w3.org/TR/2001/REC-SVG-20010904/DTD/svg10.dtd">
<svg version="1.0" xmlns="http://www.w3.org/2000/svg"
 width="1280.000000pt" height="1280.000000pt" viewBox="0 0 1280.000000 1280.000000"
 preserveAspectRatio="xMidYMid meet">
<metadata>
Created by potrace 1.15, written by Peter Selinger 2001-2017
</metadata>
<g transform="translate(0.000000,1280.000000) scale(0.100000,-0.100000)"
fill="#c6b37aed" stroke="none">
<path d="M6555 10109 c-20 -18 -45 -49 -55 -69 -26 -51 -50 -176 -50 -262 0
-40 -7 -101 -15 -136 -19 -78 -102 -290 -190 -482 -65 -141 -67 -147 -61 -205
16 -156 59 -292 113 -354 l35 -41 -90 0 c-494 0 -754 -116 -821 -368 -17 -60
-15 -182 2 -224 13 -30 13 -39 1 -67 -38 -90 2 -217 96 -305 l50 -47 0 -144
c0 -115 -3 -152 -17 -180 -13 -26 -14 -38 -5 -47 6 -6 8 -18 3 -27 -5 -9 -12
-144 -16 -301 -8 -349 -28 -726 -38 -736 -11 -11 -140 43 -198 84 -68 47 -110
107 -116 164 -5 39 -3 45 20 55 46 21 94 73 117 125 19 44 22 65 18 134 -4 70
-9 90 -34 130 -42 69 -98 95 -217 102 -234 12 -341 -68 -354 -266 -7 -96 1
-141 28 -170 l20 -22 -25 0 c-44 0 -198 87 -282 158 -44 38 -111 105 -148 148
-37 43 -73 79 -79 79 -8 0 -13 -30 -15 -93 l-3 -94 59 -101 c133 -230 136
-327 16 -525 -24 -40 -42 -78 -39 -83 4 -5 24 -18 46 -29 21 -11 39 -25 39
-30 0 -5 26 -26 58 -46 31 -21 63 -44 70 -53 34 -42 -5 -178 -68 -235 -75 -67
-165 -72 -366 -21 -168 43 -184 44 -184 9 0 -40 17 -63 58 -73 49 -14 148 -73
192 -116 118 -115 144 -146 175 -210 48 -97 66 -172 72 -301 l6 -112 -39 -12
c-22 -7 -58 -22 -81 -35 -36 -20 -48 -21 -90 -14 -65 12 -159 61 -221 115 -30
26 -60 44 -75 44 -23 0 -25 -4 -30 -57 -5 -55 -3 -61 33 -113 50 -74 95 -164
115 -233 16 -55 16 -59 -2 -90 -11 -17 -35 -43 -54 -55 -30 -21 -42 -23 -104
-19 -99 8 -134 23 -151 63 -14 33 -16 34 -74 34 -41 0 -62 -4 -66 -13 -2 -7 2
-59 11 -115 17 -116 20 -228 5 -237 -5 -3 -19 -27 -30 -53 -12 -26 -40 -67
-63 -91 -55 -58 -216 -177 -333 -249 -87 -53 -94 -59 -92 -86 l3 -29 125 -3
c130 -3 227 9 245 31 18 24 157 38 235 25 62 -11 210 -70 210 -85 0 -3 -6 -3
-12 1 -27 15 9 -14 73 -59 36 -25 89 -72 118 -103 l53 -58 31 18 c18 9 48 30
67 46 l35 29 -17 30 c-17 30 -16 32 19 103 47 94 130 178 197 201 57 20 186
23 237 6 46 -16 77 -45 84 -81 9 -39 42 -54 97 -42 l43 9 5 85 c5 79 8 89 42
135 20 28 49 61 64 75 17 15 22 17 14 6 -14 -18 -13 -19 9 -13 21 5 23 3 18
-22 -3 -16 -9 -51 -13 -79 -6 -50 -6 -51 21 -58 16 -4 36 -2 46 5 10 6 25 11
33 11 8 0 36 21 62 46 87 86 270 152 358 130 37 -9 65 -71 78 -171 12 -90 16
-95 83 -95 41 0 51 9 59 50 14 70 28 91 76 115 92 47 235 56 328 21 20 -8 57
-14 82 -13 l45 2 3 80 c4 132 -9 121 144 128 l133 5 56 -34 c59 -35 96 -76
126 -138 16 -35 16 -42 -1 -149 -19 -112 -19 -112 2 -154 19 -36 25 -41 57
-41 27 0 45 8 73 35 34 32 40 34 82 28 49 -8 106 -33 96 -43 -4 -3 14 -18 39
-34 54 -34 87 -83 119 -180 30 -91 46 -201 46 -326 0 -53 4 -102 8 -108 4 -6
26 -15 49 -19 37 -6 52 -1 127 36 64 31 98 42 136 43 56 1 67 13 18 19 -32 4
-32 4 5 5 27 2 37 -2 37 -13 0 -56 122 -196 208 -239 39 -20 56 -22 99 -17 29
4 56 10 60 14 3 4 -1 23 -10 42 -25 52 -22 160 5 232 16 44 38 75 90 127 38
38 71 66 75 63 3 -4 12 1 20 11 8 9 12 11 8 4 -4 -7 12 -4 39 10 25 12 43 25
40 30 -3 4 3 5 12 1 13 -5 15 -3 9 7 -5 9 -4 11 3 6 6 -4 41 2 78 14 78 24
147 26 167 5 9 -9 18 -43 22 -82 13 -143 13 -143 49 -143 25 0 43 11 86 56 69
70 116 94 203 105 83 10 87 13 87 50 0 16 4 29 10 29 25 0 93 151 115 257 6
31 5 33 -59 64 -90 44 -140 89 -173 157 -25 52 -28 67 -27 162 0 115 18 195
60 267 29 50 103 96 195 119 35 9 71 22 80 30 8 8 25 14 36 14 12 0 24 7 27
16 8 22 7 127 -2 140 -4 6 -36 16 -71 23 -35 7 -93 21 -128 32 l-63 20 0 40
c0 40 1 41 64 69 81 37 244 78 342 87 43 3 82 12 90 20 7 8 33 17 56 21 43 7
43 8 46 55 3 50 3 50 -52 62 -40 8 -82 54 -97 104 -11 37 -10 45 8 79 11 20
26 54 33 75 9 28 20 41 45 51 45 19 155 94 155 106 0 5 25 26 55 47 47 33 55
42 52 67 -2 28 -5 30 -102 52 -133 30 -205 58 -240 94 -26 28 -28 33 -22 93 3
35 15 87 26 115 22 61 98 140 142 149 33 6 35 16 14 66 -13 32 -13 37 1 51 8
9 22 16 29 16 8 0 17 4 20 10 6 10 -29 85 -45 95 -5 3 -29 -12 -52 -33 -86
-77 -234 -196 -292 -234 -47 -30 -62 -36 -73 -26 -27 22 -57 93 -68 158 -10
60 -13 65 -39 68 -23 3 -42 -10 -114 -80 -148 -142 -305 -248 -369 -248 l-26
0 5 103 c5 113 9 126 54 159 51 38 144 149 144 172 0 13 -25 43 -68 82 -37 34
-80 85 -97 115 -27 49 -30 62 -30 144 1 101 25 166 70 187 59 27 4 108 -72
108 -25 0 -30 -6 -46 -49 -27 -75 -110 -128 -272 -170 -67 -18 -80 -19 -126
-7 -28 8 -62 25 -76 38 -24 24 -24 26 -9 56 9 17 16 36 16 42 0 12 -36 50 -48
50 -5 0 -32 -35 -62 -77 -80 -116 -181 -245 -188 -239 -20 21 -31 165 -32 416
0 160 -7 335 -15 420 -8 80 -15 153 -15 163 0 9 38 53 84 97 106 102 138 159
144 257 4 71 3 75 -43 168 l-47 96 17 39 c31 68 1 167 -69 228 -113 99 -352
170 -681 202 -60 6 -129 13 -151 16 l-42 5 33 77 c74 177 77 195 73 385 -4
152 -8 180 -30 242 -29 81 -87 198 -133 271 -26 41 -34 65 -40 125 -8 94 -32
243 -45 290 -13 45 -46 89 -67 89 -13 0 -15 -19 -11 -152 5 -156 23 -262 59
-345 l18 -42 -34 -11 c-91 -30 -163 -117 -216 -260 -50 -137 -69 -240 -69
-378 0 -117 1 -124 21 -129 14 -4 18 -11 14 -22 -4 -9 -14 -51 -23 -93 -10
-49 -21 -78 -29 -78 -16 0 -16 9 2 40 8 14 14 40 15 58 0 26 -4 32 -20 32 -76
0 -125 83 -142 238 l-11 97 42 105 c62 154 137 304 170 342 24 28 30 45 35
108 19 203 58 380 102 461 32 58 29 93 -8 97 -18 2 -37 -7 -63 -29z m314 -774
c34 -91 54 -237 48 -350 -5 -112 -32 -207 -93 -327 -33 -66 -37 -70 -52 -54
-16 16 -15 21 16 76 33 61 40 108 22 156 -7 18 -7 30 0 40 6 7 10 28 8 46 -2
26 -8 34 -26 36 -20 3 -23 8 -17 30 18 70 34 176 40 262 11 167 19 180 54 85z
m-189 -144 c0 -31 -5 -93 -12 -139 -10 -75 -14 -85 -39 -97 -15 -8 -43 -33
-63 -57 l-36 -42 0 35 c0 51 28 217 46 274 25 78 37 93 73 87 30 -4 31 -5 31
-61z m-159 -815 c41 -81 35 -86 -99 -86 -119 0 -259 20 -207 29 23 5 31 12 33
32 2 17 -3 29 -14 33 -19 7 -193 -23 -211 -37 -23 -17 -15 -67 16 -95 71 -67
79 -72 112 -70 55 2 363 -35 343 -42 -65 -23 332 -27 518 -5 155 18 212 39
272 98 38 37 46 51 46 81 0 20 4 36 9 36 11 0 244 -66 288 -82 29 -11 34 -18
43 -67 33 -164 61 -275 85 -336 21 -51 25 -72 17 -88 -8 -19 -11 -14 -22 38
-25 121 -56 165 -117 165 -50 0 -129 -59 -158 -118 l-20 -42 -62 0 -62 0 -7
48 c-9 63 -40 145 -62 166 -17 15 -27 13 -143 -20 -68 -20 -127 -40 -130 -46
-4 -6 -10 -38 -14 -71 -8 -76 -48 -202 -71 -228 -12 -14 -30 -19 -64 -19 l-47
0 -12 66 c-26 143 -95 212 -229 230 -44 6 -57 3 -96 -20 -25 -15 -53 -40 -61
-56 -24 -46 -19 -143 11 -225 37 -99 41 -162 14 -214 -37 -73 -117 -102 -221
-80 -90 19 -162 110 -129 163 58 91 72 118 90 168 30 87 27 155 -10 207 -47
64 -63 68 -183 44 -56 -11 -128 -31 -160 -43 -99 -37 -180 -114 -194 -182 -3
-18 -12 -28 -23 -28 -14 0 -21 18 -35 85 l-18 84 52 72 c29 39 50 77 47 85 -3
8 -20 14 -40 14 -19 0 -47 5 -62 10 -25 10 -26 13 -20 63 22 167 150 290 357
341 49 12 116 16 270 17 122 0 230 5 269 13 63 12 65 12 73 -8 5 -12 22 -47
38 -80z m427 67 c-10 -2 -26 -2 -35 0 -10 3 -2 5 17 5 19 0 27 -2 18 -5z m62
-12 c-33 -6 -32 -7 25 -15 33 -4 83 -11 110 -16 l50 -7 -60 -2 c-63 -1 -85
-12 -85 -43 0 -10 -15 -27 -32 -38 -29 -18 -51 -20 -188 -20 l-154 0 57 52
c31 28 57 57 57 64 0 14 109 29 225 31 28 0 27 0 -5 -6z m-43 -287 c-3 -3 -12
-4 -19 -1 -8 3 -5 6 6 6 11 1 17 -2 13 -5z m-939 -317 c6 -5 12 -28 12 -51 0
-31 -9 -53 -36 -91 -89 -124 -114 -229 -79 -322 22 -57 94 -137 150 -165 99
-51 235 -63 294 -27 59 36 161 147 186 202 39 87 39 109 1 256 -19 74 -33 138
-30 143 3 4 16 8 29 8 12 0 25 7 29 15 17 46 67 -45 87 -160 7 -39 17 -76 22
-82 7 -9 45 -13 129 -13 175 0 184 6 234 152 42 123 61 151 101 146 23 -3 27
-11 43 -72 14 -57 24 -76 59 -109 40 -37 46 -40 101 -39 62 1 127 23 148 49
16 22 18 -2430 2 -2752 -15 -304 6 -262 -173 -333 -239 -94 -321 -109 -452
-84 l-90 17 -3 35 c-2 30 8 48 63 122 l66 88 -3 62 -3 63 -37 3 c-20 2 -50 -4
-67 -12 -61 -32 -167 -10 -218 45 -12 13 -32 47 -45 74 -21 47 -23 66 -26 288
-3 186 -7 237 -17 237 -7 0 -55 -25 -106 -55 -109 -64 -185 -96 -251 -103 -43
-4 -52 -1 -97 33 -78 60 -123 132 -136 219 l-7 46 -73 0 c-41 0 -85 -4 -99
-10 l-26 -10 -1 98 c0 53 -3 128 -8 165 l-7 68 45 38 45 38 -23 36 c-12 20
-36 48 -53 62 l-30 25 17 243 c19 256 17 499 -5 655 -10 65 -9 101 0 160 7 42
14 168 17 279 l6 202 71 34 c39 19 97 50 129 69 58 35 85 39 115 15z m1702
-137 c0 -5 -4 -10 -10 -10 -5 0 -10 5 -10 10 0 6 5 10 10 10 6 0 10 -4 10 -10z
m-2544 -959 c36 -61 39 -70 27 -87 -8 -10 -19 -38 -25 -61 -6 -24 -14 -43 -19
-43 -4 0 -38 7 -75 16 -37 8 -73 13 -80 10 -9 -4 -14 -22 -14 -52 0 -45 -1
-46 -26 -40 -42 11 -71 35 -104 84 -36 55 -38 97 -7 142 39 59 131 98 232 99
l50 0 41 -68z m2916 -220 c46 -12 68 -13 120 -4 34 6 64 9 66 8 2 -2 -101
-129 -229 -282 -128 -153 -245 -297 -261 -319 -15 -23 -35 -45 -44 -48 -15 -6
-16 3 -10 81 4 49 11 139 15 202 l9 114 82 80 c44 44 96 101 113 127 18 26 37
49 42 51 6 2 9 8 7 13 -2 5 5 5 15 1 10 -5 43 -15 75 -24z m354 -151 c9 -41
28 -98 42 -127 l26 -53 -22 -39 c-30 -52 -59 -169 -67 -269 -4 -45 -11 -82
-14 -82 -21 0 -44 31 -50 66 -6 35 -9 39 -36 39 -26 0 -36 -10 -77 -70 -144
-211 -300 -323 -457 -328 l-66 -2 -3 67 c-3 78 23 168 69 234 16 23 29 48 29
54 0 6 53 69 119 138 65 70 188 206 273 302 85 96 165 181 179 187 27 14 23
23 55 -117z m-3756 -9 c63 -19 276 -38 235 -21 -13 6 -15 9 -5 9 8 1 33 4 54
8 26 4 37 3 33 -4 -4 -6 -1 -13 7 -16 8 -3 17 -21 21 -39 30 -141 177 -287
330 -326 22 -6 59 -16 83 -22 l42 -11 0 -60 c0 -56 -1 -59 -19 -49 -11 5 -45
10 -77 10 -54 0 -60 -3 -126 -57 -38 -31 -73 -64 -79 -75 -5 -10 -14 -18 -20
-18 -20 0 -108 75 -109 92 0 20 -64 99 -94 115 -27 15 -46 0 -46 -35 0 -71
-70 -152 -180 -211 -55 -30 -170 -74 -176 -69 -1 2 4 41 12 88 7 47 14 118 14
158 0 65 -3 78 -30 117 -17 24 -40 47 -51 50 -19 6 -21 12 -15 56 4 27 19 89
33 137 14 48 26 97 26 110 -1 18 5 14 28 -22 16 -24 36 -46 43 -49 7 -3 23
-25 35 -49 26 -55 69 -97 101 -100 22 -3 25 1 28 34 3 33 -3 43 -47 89 -27 28
-55 65 -62 83 -8 17 -29 48 -49 70 -19 22 -28 37 -20 33 8 -3 44 -15 80 -26z
m4377 -563 l63 -32 -33 -34 c-66 -70 -519 -419 -670 -517 -34 -22 -88 -15
-157 20 -60 30 -84 31 -185 5 -160 -41 -255 -103 -301 -196 -21 -44 -28 -74
-32 -148 l-5 -92 45 -55 c80 -98 173 -145 313 -156 164 -13 337 77 376 195 18
55 6 177 -24 243 l-25 57 47 45 c131 127 693 538 753 551 25 6 27 4 38 -51 7
-32 21 -75 32 -97 23 -46 134 -167 144 -158 12 12 -7 -20 -72 -119 -35 -52
-67 -109 -70 -126 -5 -27 3 -105 22 -205 5 -26 4 -26 -63 -33 -297 -28 -433
-115 -463 -297 -8 -52 -8 -54 36 -120 24 -37 44 -74 44 -81 0 -18 -71 -127
-98 -151 -19 -17 -22 -17 -22 -3 0 21 1 21 -89 -3 -77 -20 -114 -18 -166 8
-88 43 -129 128 -143 296 -6 64 -10 81 -23 80 -8 -1 -89 -53 -179 -117 l-165
-115 -52 8 c-67 11 -104 31 -145 80 -66 76 -71 108 -76 454 -2 170 -1 323 2
340 6 31 10 33 154 80 234 77 331 136 407 246 32 46 55 50 126 24 67 -24 160
-21 259 11 122 39 187 76 250 139 30 31 61 56 70 56 8 0 43 -14 77 -32z
m-3610 -100 c31 -30 33 -36 33 -100 l0 -68 -48 0 c-26 0 -61 -4 -78 -9 -38
-11 -107 8 -99 27 2 7 -1 24 -7 37 -10 22 -8 29 18 57 35 37 112 88 133 88 8
0 30 -14 48 -32z m-467 -192 c30 -32 71 -68 90 -81 53 -33 159 -72 229 -85
121 -22 273 23 407 119 72 51 89 52 105 4 23 -72 51 -118 108 -176 67 -69 116
-87 232 -87 69 0 84 4 143 35 101 53 100 54 110 -82 13 -167 64 -315 127 -367
27 -23 30 -31 27 -73 -3 -44 -5 -48 -33 -53 -24 -4 -31 -11 -33 -34 l-4 -28
-34 33 -34 33 -101 -17 -101 -18 -55 26 c-30 15 -73 29 -96 33 -39 7 -42 9
-57 62 -49 162 -153 264 -284 277 -47 5 -60 1 -184 -61 -122 -60 -190 -86
-265 -101 -25 -5 -28 -10 -25 -38 3 -28 7 -32 34 -35 l32 -3 4 -88 c9 -198
117 -296 335 -309 l92 -5 53 43 c29 24 71 60 93 81 22 20 51 40 65 44 13 4 30
13 37 20 24 24 179 -7 265 -52 l53 -28 -77 -3 -78 -3 0 -49 c0 -47 1 -49 38
-61 20 -7 56 -20 80 -31 l44 -18 -62 -67 c-65 -73 -117 -164 -126 -225 -6 -32
-9 -36 -25 -28 -24 13 -103 13 -174 -2 -32 -6 -105 -35 -161 -63 l-102 -51
-64 48 c-60 45 -66 47 -128 48 -86 0 -181 -21 -263 -58 l-67 -31 0 128 c0 111
-4 139 -26 207 -55 169 -135 283 -232 331 -50 25 -68 28 -142 27 -74 -2 -256
-31 -305 -51 -15 -5 -16 -3 -6 15 27 50 6 317 -36 462 -20 72 -37 116 -90 237
-3 9 14 6 53 -7 31 -11 77 -20 101 -20 42 0 43 1 43 33 0 30 -4 33 -57 53
l-56 20 89 22 c109 27 253 97 318 157 44 38 74 52 111 50 6 0 35 -27 65 -59z
m3228 -370 c96 -49 131 -116 132 -252 0 -86 -1 -92 -27 -116 -40 -37 -103 -68
-138 -68 -38 0 -183 35 -232 55 -21 9 -50 28 -65 42 -25 24 -28 33 -28 97 0
88 17 119 90 166 40 26 199 99 218 100 1 0 24 -11 50 -24z m-2402 -265 c27
-12 46 -30 56 -52 24 -50 26 -83 6 -87 -12 -2 -16 4 -15 30 2 30 -1 33 -31 36
-40 4 -79 -19 -93 -56 -14 -36 10 -54 61 -46 34 6 38 4 49 -25 12 -28 11 -35
-15 -78 -15 -27 -40 -60 -55 -75 -25 -25 -34 -28 -97 -28 -60 0 -74 4 -108 29
-21 15 -47 37 -57 49 -23 25 -46 87 -47 124 0 24 4 27 45 34 25 3 47 10 50 14
2 4 -9 28 -24 53 l-29 45 66 16 c37 9 76 19 87 22 17 4 18 3 5 -6 -12 -10 -10
-11 10 -6 14 3 39 6 55 7 30 2 30 2 -5 9 l-35 7 40 1 c22 1 58 -7 81 -17z
m877 -153 c-8 -59 -13 -61 -13 -5 0 26 4 47 9 47 5 0 7 -19 4 -42z m2624 36
c-3 -3 -12 -4 -19 -1 -8 3 -5 6 6 6 11 1 17 -2 13 -5z m-4990 -178 c-13 -10
-15 -15 -5 -18 10 -4 9 -19 -6 -74 -32 -120 -32 -124 0 -125 16 0 37 -4 47 -8
17 -6 15 -12 -22 -58 -90 -114 -163 -164 -463 -314 -154 -77 -278 -136 -276
-132 58 117 70 150 75 197 7 64 13 72 68 81 26 4 35 3 27 -3 -11 -7 -8 -11 10
-15 39 -11 106 -8 120 6 7 7 30 23 50 35 78 48 135 177 125 284 -5 52 -3 58
13 58 43 0 120 22 114 32 -5 7 1 9 15 5 13 -3 21 -3 18 0 -3 3 18 18 46 33 58
31 71 36 44 16z m3216 -66 c65 0 85 -9 109 -49 29 -48 132 -155 189 -197 41
-30 54 -34 106 -34 77 0 135 20 201 70 29 23 66 43 81 46 26 6 29 3 40 -41 23
-93 90 -183 163 -221 45 -23 138 -28 237 -11 l84 14 -6 -66 c-23 -244 -19
-287 34 -411 22 -51 112 -146 129 -135 18 11 11 -21 -13 -56 -12 -19 -47 -48
-76 -66 l-54 -32 -29 24 c-25 21 -140 65 -170 65 -6 0 -79 49 -162 108 -298
214 -444 308 -514 333 -18 6 -46 24 -62 40 -15 16 -36 29 -44 29 -13 0 -11 8
10 40 23 35 26 47 21 90 -16 134 -132 240 -262 240 -142 0 -302 -57 -369 -130
l-36 -40 -43 33 c-23 17 -93 54 -155 81 l-112 49 27 14 c21 11 46 13 96 9 59
-5 80 -2 157 24 90 30 230 95 241 112 10 16 134 84 137 76 2 -4 22 -8 45 -8z
m-2569 -262 c38 -77 49 -111 53 -163 5 -59 4 -65 -14 -65 -66 0 -193 -108
-254 -215 l-29 -51 -127 19 -126 20 -76 -22 c-166 -48 -276 -130 -302 -224 -6
-23 -13 -48 -15 -55 -3 -10 -15 -5 -39 17 -20 17 -54 40 -77 52 -64 33 -221
68 -353 80 -66 6 -131 13 -145 16 -25 6 -25 6 6 14 17 5 42 19 55 32 13 13
125 74 249 134 225 110 371 198 390 234 6 10 16 19 23 19 7 0 38 11 70 24 l57
24 0 -33 c0 -48 25 -121 54 -160 42 -54 94 -69 207 -56 171 19 251 59 290 145
28 61 27 239 -1 281 -27 41 -26 43 18 36 35 -6 39 -10 86 -103z m-268 53 c62
-28 64 -41 5 -41 -45 0 -51 -3 -57 -24 -3 -13 -4 -35 -2 -47 3 -21 9 -24 52
-27 35 -2 53 2 67 14 19 17 19 16 13 -17 -16 -87 -54 -129 -137 -154 -134 -40
-217 12 -217 133 0 29 4 51 8 48 5 -3 16 4 25 15 9 10 29 19 45 19 37 0 52 17
52 56 0 18 6 35 13 37 28 12 95 5 133 -12z m2135 -126 c181 -73 221 -85 262
-83 l47 3 0 -68 c0 -78 13 -110 64 -155 54 -47 99 -55 279 -49 106 4 157 2
157 -5 0 -13 52 -1 61 14 5 8 24 8 66 -1 49 -11 87 -33 238 -137 250 -173 387
-276 378 -284 -4 -4 -33 -15 -63 -25 -277 -88 -435 -237 -471 -443 l-11 -61
-49 59 c-97 117 -180 152 -307 131 -41 -7 -81 -15 -87 -17 -9 -4 -14 21 -19
84 -8 111 -27 189 -66 267 -35 71 -108 162 -169 210 l-44 35 -123 0 c-67 0
-125 3 -127 8 -3 4 1 47 8 95 12 81 12 93 -5 142 -22 64 -67 132 -111 169 -53
45 -104 66 -222 91 l-28 6 30 36 c30 37 66 62 87 63 6 0 108 -38 225 -85z
m765 -6 c52 -16 72 -46 75 -114 l3 -60 -33 -9 c-18 -5 -42 -22 -54 -38 -20
-27 -23 -28 -118 -28 -93 0 -99 1 -155 35 -32 19 -61 35 -66 35 -4 0 -8 19 -8
43 0 52 23 81 86 108 95 43 190 52 270 28z m-3789 -55 c-3 -3 -12 -4 -19 -1
-8 3 -5 6 6 6 11 1 17 -2 13 -5z m2750 -111 c10 -10 14 -15 8 -11 -6 4 -22 12
-36 17 -15 6 -18 10 -8 10 9 1 25 -7 36 -16z"/>
<path d="M4800 6032 c0 -60 94 -159 129 -137 22 13 11 62 -23 107 -36 46 -53
58 -87 58 -14 0 -19 -7 -19 -28z"/>
<path d="M4570 5195 c0 -30 62 -79 123 -97 25 -8 42 -20 48 -35 10 -26 45 -43
90 -43 63 0 43 74 -27 100 -22 8 -55 28 -73 43 -41 34 -94 57 -132 57 -24 0
-29 -4 -29 -25z"/>
<path d="M4905 5010 c-7 -12 12 -50 34 -68 37 -30 98 -52 149 -52 51 0 52 1
52 29 0 26 -5 30 -47 40 -27 7 -67 23 -90 37 -43 25 -87 31 -98 14z"/>
<path d="M8164 5006 c-3 -8 -4 -29 -2 -48 3 -31 5 -33 47 -36 53 -4 91 25 91
70 0 28 0 28 -65 28 -47 0 -67 -4 -71 -14z"/>
<path d="M7419 4121 c-25 -25 -30 -37 -27 -68 3 -37 4 -38 45 -41 35 -3 48 2
68 23 21 20 26 33 23 68 -3 41 -4 42 -41 45 -31 3 -43 -2 -68 -27z"/>
<path d="M6245 3743 c-28 -22 -69 -61 -92 -86 l-43 -47 0 -104 c0 -98 2 -106
26 -136 29 -33 94 -70 160 -90 40 -12 45 -11 124 29 173 86 245 164 263 283 5
34 2 40 -44 83 -74 69 -143 97 -253 103 l-91 4 -50 -39z m227 -94 c76 -29 81
-36 68 -96 -15 -70 -65 -126 -136 -152 -76 -29 -98 -27 -144 15 -33 30 -40 43
-40 73 0 42 29 108 56 133 58 52 114 59 196 27z"/>
<path d="M6354 3596 c-3 -8 -4 -31 -2 -52 l3 -39 44 1 c52 1 81 28 81 75 0 29
0 29 -60 29 -43 0 -62 -4 -66 -14z"/>
</g>
</svg>
