<svg xmlns="http://www.w3.org/2000/svg" version="1.1" xmlns:xlink="http://www.w3.org/1999/xlink" xmlns:svgjs="http://svgjs.dev/svgjs" viewBox="0 0 800 800" opacity="1"><g fill="none" stroke-width="1.5" stroke="#c6b37aed" stroke-linecap="round"><line x1="425" y1="400" x2="375" y2="400" transform="rotate(0, 400, 400)" opacity="0.78"></line><line x1="428" y1="400" x2="372" y2="400" transform="rotate(7, 400, 400)" opacity="0.57"></line><line x1="552.5" y1="400" x2="247.5" y2="400" transform="rotate(14, 400, 400)" opacity="0.59"></line><line x1="211" y1="400" x2="589" y2="400" transform="rotate(21, 400, 400)" opacity="0.26"></line><line x1="656" y1="400" x2="144" y2="400" transform="rotate(28, 400, 400)" opacity="0.36"></line><line x1="399" y1="400" x2="401" y2="400" transform="rotate(35, 400, 400)" opacity="0.21"></line><line x1="398.5" y1="400" x2="401.5" y2="400" transform="rotate(42, 400, 400)" opacity="0.21"></line><line x1="317" y1="400" x2="483" y2="400" transform="rotate(49, 400, 400)" opacity="0.60"></line><line x1="655" y1="400" x2="145" y2="400" transform="rotate(56, 400, 400)" opacity="0.71"></line><line x1="266" y1="400" x2="534" y2="400" transform="rotate(63, 400, 400)" opacity="0.42"></line><line x1="699.5" y1="400" x2="100.5" y2="400" transform="rotate(70, 400, 400)" opacity="0.93"></line><line x1="506" y1="400" x2="294" y2="400" transform="rotate(77, 400, 400)" opacity="0.73"></line><line x1="306.5" y1="400" x2="493.5" y2="400" transform="rotate(84, 400, 400)" opacity="0.21"></line><line x1="329" y1="400" x2="471" y2="400" transform="rotate(91, 400, 400)" opacity="0.42"></line><line x1="404" y1="400" x2="396" y2="400" transform="rotate(98, 400, 400)" opacity="0.91"></line><line x1="723" y1="400" x2="77" y2="400" transform="rotate(105, 400, 400)" opacity="0.22"></line><line x1="406" y1="400" x2="394" y2="400" transform="rotate(112, 400, 400)" opacity="0.27"></line><line x1="449" y1="400" x2="351" y2="400" transform="rotate(119, 400, 400)" opacity="0.82"></line><line x1="576" y1="400" x2="224" y2="400" transform="rotate(126, 400, 400)" opacity="0.09"></line><line x1="628.5" y1="400" x2="171.5" y2="400" transform="rotate(133, 400, 400)" opacity="0.67"></line><line x1="602.5" y1="400" x2="197.5" y2="400" transform="rotate(140, 400, 400)" opacity="0.90"></line><line x1="599" y1="400" x2="201" y2="400" transform="rotate(147, 400, 400)" opacity="0.32"></line><line x1="415" y1="400" x2="385" y2="400" transform="rotate(154, 400, 400)" opacity="0.83"></line><line x1="240" y1="400" x2="560" y2="400" transform="rotate(161, 400, 400)" opacity="0.20"></line><line x1="325.5" y1="400" x2="474.5" y2="400" transform="rotate(168, 400, 400)" opacity="0.94"></line><line x1="571.5" y1="400" x2="228.5" y2="400" transform="rotate(175, 400, 400)" opacity="0.78"></line><line x1="546.5" y1="400" x2="253.5" y2="400" transform="rotate(182, 400, 400)" opacity="0.99"></line><line x1="624" y1="400" x2="176" y2="400" transform="rotate(189, 400, 400)" opacity="0.29"></line><line x1="266" y1="400" x2="534" y2="400" transform="rotate(196, 400, 400)" opacity="0.61"></line><line x1="673" y1="400" x2="127" y2="400" transform="rotate(203, 400, 400)" opacity="0.85"></line><line x1="484" y1="400" x2="316" y2="400" transform="rotate(210, 400, 400)" opacity="0.45"></line><line x1="629" y1="400" x2="171" y2="400" transform="rotate(217, 400, 400)" opacity="0.26"></line><line x1="347.5" y1="400" x2="452.5" y2="400" transform="rotate(224, 400, 400)" opacity="0.85"></line><line x1="678.5" y1="400" x2="121.5" y2="400" transform="rotate(231, 400, 400)" opacity="0.87"></line><line x1="714" y1="400" x2="86" y2="400" transform="rotate(238, 400, 400)" opacity="0.59"></line><line x1="579" y1="400" x2="221" y2="400" transform="rotate(245, 400, 400)" opacity="0.54"></line><line x1="578.5" y1="400" x2="221.5" y2="400" transform="rotate(252, 400, 400)" opacity="0.91"></line><line x1="408" y1="400" x2="392" y2="400" transform="rotate(259, 400, 400)" opacity="0.23"></line><line x1="272.5" y1="400" x2="527.5" y2="400" transform="rotate(266, 400, 400)" opacity="0.92"></line><line x1="498" y1="400" x2="302" y2="400" transform="rotate(273, 400, 400)" opacity="0.43"></line><line x1="290.5" y1="400" x2="509.5" y2="400" transform="rotate(280, 400, 400)" opacity="0.76"></line><line x1="522" y1="400" x2="278" y2="400" transform="rotate(287, 400, 400)" opacity="0.55"></line><line x1="277.5" y1="400" x2="522.5" y2="400" transform="rotate(294, 400, 400)" opacity="0.42"></line><line x1="589" y1="400" x2="211" y2="400" transform="rotate(301, 400, 400)" opacity="0.22"></line><line x1="609.5" y1="400" x2="190.5" y2="400" transform="rotate(308, 400, 400)" opacity="0.72"></line><line x1="630" y1="400" x2="170" y2="400" transform="rotate(315, 400, 400)" opacity="0.43"></line><line x1="432" y1="400" x2="368" y2="400" transform="rotate(322, 400, 400)" opacity="0.79"></line><line x1="589.5" y1="400" x2="210.5" y2="400" transform="rotate(329, 400, 400)" opacity="0.33"></line><line x1="361.5" y1="400" x2="438.5" y2="400" transform="rotate(336, 400, 400)" opacity="0.46"></line><line x1="360" y1="400" x2="440" y2="400" transform="rotate(343, 400, 400)" opacity="0.25"></line><line x1="398" y1="400" x2="402" y2="400" transform="rotate(350, 400, 400)" opacity="0.14"></line><line x1="693" y1="400" x2="107" y2="400" transform="rotate(357, 400, 400)" opacity="0.73"></line></g></svg>